<svg version="1.1" xmlns="http://www.w3.org/2000/svg" xmlns:xlink="http://www.w3.org/1999/xlink" x="0px" y="0px"
	 width="250px" height="164.795px" viewBox="0 0 250 164.795" enable-background="new 0 0 250 164.795" xml:space="preserve">
<path fill-rule="evenodd" clip-rule="evenodd" fill="#0366d6" d="M87.69,95.259h0.593c7.219-1.636,13.398-6.191,18.542-13.618
	v-1.882l-1.238-1.238C99.211,78.521,93.228,84.116,87.69,95.259z M182.776,92.634c-1.782-6.19-4.846-9.309-9.248-9.309
	c0,0-11.611,7.827-12.361,18.566c0,2.479,1.433,3.717,4.302,3.717h2.473c9.888-3.27,14.834-7.43,14.834-12.381V92.634z
	 M81.731,11.152c1.375-1.37,4.121,0,5.493,0C85.852,12.52,83.105,11.152,81.731,11.152z M100.962,24.839
	c-2.747-1.367-1.375-2.737,0-4.106C102.334,22.102,102.334,22.102,100.962,24.839z M122.939,39.897c-1.375,0-4.121,0-6.868,1.367
	l1.372-5.474C120.193,37.158,121.565,38.528,122.939,39.897z M78.984,48.11c-1.375-1.37-4.121-2.739-6.87-4.106
	c2.749-1.37,5.496,1.367,8.242,0C80.356,45.371,80.356,46.741,78.984,48.11z M230.083,54.954c0,0,0-1.37,1.372-2.737
	C231.455,53.584,231.455,54.954,230.083,54.954z M238.325,70.012c-1.375,0-2.749-1.37-2.749-2.739L238.325,70.012z M7.556,89.175
	c1.372-1.369,2.747-1.369,4.119,0C10.303,90.545,8.928,90.545,7.556,89.175z M212.224,97.388c0,4.106-5.493,6.843-4.119,4.106
	C206.731,101.494,212.224,94.65,212.224,97.388z M73.489,124.763c0,0-1.375,1.37-1.375,0H73.489z M129.807,135.716
	c1.375,0,2.749-1.37,4.121-1.37C132.556,135.716,131.182,135.716,129.807,135.716z M69.368,24.839l-2.747-2.737
	c1.375,0,4.121-1.37,6.868-1.37L69.368,24.839z M176.387,30.266c1.27-0.518,2.756-1.321,4.246-1.321
	C179.702,29.873,178.147,30.171,176.387,30.266z M173.765,30.315c0.889,0,1.78-0.002,2.622-0.049
	C175.313,30.706,174.392,30.942,173.765,30.315z M28.159,45.371c-1.375-1.367-1.375-5.474-2.747-5.474c1.372,0,0,1.367,4.121,1.367
	c2.747,0,2.747-4.106,4.121-2.737C32.28,39.897,29.534,42.634,28.159,45.371z M179.258,41.265c-1.372,2.739-4.121,0-5.493,1.37
	c0,0,0-2.737,1.372-2.737C176.511,41.265,177.886,39.897,179.258,41.265z M214.973,44.004c0-1.37,1.372-2.739,2.747-4.106
	C216.345,41.265,216.345,42.634,214.973,44.004z M165.522,45.371c-1.375-1.367-2.747,0-4.121-1.367
	c1.375-1.37,1.375-2.739,2.747-2.739C164.148,44.004,165.522,44.004,165.522,45.371z M103.708,60.43c0-1.37-1.375-4.106,0-4.106
	C103.708,57.69,105.083,60.43,103.708,60.43z M67.996,68.643c0-1.37,0-2.737,1.372-2.737C69.368,65.906,69.368,67.273,67.996,68.643
	z M26.785,70.012c1.375-1.37,2.749-1.37,4.121-2.739C29.534,68.643,28.159,70.012,26.785,70.012z M239.697,72.749
	c0.452-1.797,1.199-2.268,2.048-2.041L239.697,72.749z M244.319,72.769c-0.835-0.959-1.75-1.838-2.573-2.061l0.698-0.696
	C243.269,70.833,243.596,71.653,244.319,72.769z M246.565,75.486c-1.099-1.096-1.76-1.973-2.246-2.717
	C245.249,73.835,246.082,75.002,246.565,75.486z M35.027,94.65c-1.372-1.369-2.747-1.369-2.747-5.476c0-2.737,0-1.369,1.375-2.737
	L35.027,94.65z M192.996,115.183c-1.375,0-2.749-2.738-4.121-5.476C190.247,109.707,191.621,112.444,192.996,115.183z
	 M131.182,126.133c-1.375,1.37-1.375,2.736-2.747,4.106c0-1.37,0-4.106-2.749-6.844
	C127.061,124.763,129.807,126.133,131.182,126.133z M113.325,132.976c0-1.366,0-2.736-1.375-4.106c0,0,1.375-1.366,2.747-1.366
	C114.697,128.869,113.325,131.609,113.325,132.976z M107.83,139.821c0,1.368-1.375,1.368-1.375,0H107.83z M80.356,146.665
	c0,0-1.372-1.37-2.747-1.37c1.375-1.367,2.747-2.736,4.121-2.736S81.731,145.295,80.356,146.665z M250,72.891
	c0-5.093-0.571-9.834-1.648-14.241l-0.413,0.41c0.146-0.144,0.276-0.308,0.391-0.479C234.607,2.72,140.081,0,110.759,0
	C95.791,0,70.203,0.706,47.39,8.162v2.991h-5.496c0.454-0.452,0.759-0.906,0.962-1.404C19.417,18.528,0,35.154,0,66.553
	c0,24.671,3.403,39.116,19.724,51.496c0.935-0.497,1.941-0.998,2.942-1.498c0,0,1.372,1.369,1.372,2.738c0,0,0-1.369-2.747-1.369
	c-0.562,0-1.074,0.049-1.545,0.144c10.935,8.289,27.664,15.652,53.04,24.546c-3.167,6.341-3.167,15.848-3.167,22.186
	c15.823-6.338,25.317-15.845,41.14-19.014c13.391-2.684,40.383-3.093,67.063-8.198c0.044-0.555,0.063-1.167,0.063-1.867
	c0,0,1.34-0.003,2.698,1.32c7.947-1.623,15.825-3.682,23.262-6.364c-0.347-1.448-1.235-3.438-1.235-4.539
	c1.375,1.37,2.747,2.736,4.121,2.736l-1.167,1.165C230.449,120.637,250,103.962,250,72.891z M46.255,97.585
	c1.482-31.345,4.399-47.041,8.652-47.041c1.631,0.593,2.473,1.238,2.473,1.831c-2.917,20.452-4.353,34.465-4.353,42.089v5.596h0.645
	c2.224-13.171,5.735-19.807,10.481-19.807l1.88-0.645c6.13,0,9.246,9.111,9.246,27.236l-3.064,1.88
	c-2.917,0-4.551-6.387-4.946-19.211l-0.642-2.477l-0.593-0.595h-0.642c-3.115,3.071-5.588,10.695-7.417,22.878
	c-1.238,2.476-2.869,3.714-4.946,3.714C48.975,113.035,46.748,107.886,46.255,97.585z M94.463,76.045
	c3.708-2.476,6.824-3.713,9.297-3.713h3.066c4.104,0.842,6.179,2.92,6.179,6.189v1.882c0,7.426-6.824,14.26-20.371,20.401
	l-3.708,0.644h-4.351c0,2.872,1.829,4.31,5.586,4.31h3.708c5.471,0,15.818-1.834,31.006-5.568l-0.002-2.159
	c0-20.993,3.264-49.069,9.89-84.179l0.642-0.593h1.829c0.891,0,1.731,1.682,2.473,4.951c-5.786,38.574-8.652,65.166-8.652,79.821
	c1.335,14.065,4.451,21.046,9.294,21.046l0.593,0.645v0.596l-4.944,1.237c-5.786,0-9.492-6.39-11.125-19.165l0.002-0.176
	c-11.084,6.94-21.833,10.376-32.241,10.376c-9.495,0-14.241-2.871-14.241-8.665v-2.476C78.394,94.961,83.735,86.494,94.463,76.045z
	 M148.481,31.108h1.829c0.891,0,1.731,1.685,2.473,4.954c-5.786,38.574-5.906,47.312-5.906,61.967
	c1.335,14.065,4.451,21.046,9.294,21.046l0.593,0.645v0.596l-4.944,1.237c-5.784,0-9.492-6.39-11.125-19.165v-4.358
	c0-20.993,0.518-31.218,7.144-66.325L148.481,31.108z M174.121,75.303l6.182-1.882c4.548,0.347,6.824,2.229,6.824,5.596
	l-2.473,1.831l-0.642-0.593h-0.593v0.593c3.66,4.458,5.537,7.776,5.537,9.905v4.358c-4.351,11.14-11.521,16.687-21.606,16.687
	h-3.708c-5.786-1.286-8.655-4.209-8.655-8.665v-1.833C154.985,93.574,161.365,84.909,174.121,75.303z"/>
</svg>
